<svg width="17" height="17" viewBox="0 0 17 17" fill="none" xmlns="http://www.w3.org/2000/svg">
<path d="M8.5 14.6626C5.12536 14.6626 2.34233 11.8675 2.34233 8.50496C2.34233 5.13635 5.13139 2.34729 8.49396 2.34729C11.8626 2.34729 14.6577 5.13635 14.6577 8.50496C14.6577 11.8675 11.8686 14.6626 8.5 14.6626ZM7.00888 13.6243L6.58629 11.777L7.35298 10.793H9.63494L10.4077 11.777L9.97905 13.6243C11.2166 13.2621 12.2791 12.4531 12.9673 11.3906L10.9268 11.3604L10.0817 10.2798L10.7276 8.28763L12.2972 7.65375L13.8366 8.52307C13.8306 7.22513 13.3778 6.06 12.6232 5.14239L12.0497 7.03195L10.5344 7.64772L8.83807 6.34374V4.75603L10.3654 3.51242C9.77983 3.28905 9.14595 3.16831 8.49396 3.16831C7.84198 3.16831 7.2081 3.28905 6.62252 3.51242L8.1559 4.75603V6.34374L6.45952 7.64772L4.93821 7.03195L4.3647 5.14239C3.61009 6.06 3.15732 7.22513 3.15128 8.52307L4.6907 7.65375L6.2603 8.28763L6.90625 10.2798L6.06108 11.3604L4.0206 11.3906C4.70881 12.4531 5.77131 13.2621 7.00888 13.6243Z" fill="white"/>
</svg>
