<svg width="17" height="16" viewBox="0 0 17 16" fill="none" xmlns="http://www.w3.org/2000/svg">
<path d="M3.66016 15.0293C3.36393 15.0293 3.13151 14.9518 2.96289 14.7969C2.79427 14.6465 2.70085 14.4574 2.68262 14.2295C2.66895 14.0062 2.73958 13.7874 2.89453 13.5732C2.99479 13.4456 3.10872 13.2861 3.23633 13.0947C3.36849 12.9033 3.49837 12.7051 3.62598 12.5C3.75358 12.2904 3.86523 12.099 3.96094 11.9258C3.25 11.5658 2.63249 11.1123 2.1084 10.5654C1.58431 10.0186 1.17871 9.40788 0.891602 8.7334C0.604492 8.05436 0.460938 7.34115 0.460938 6.59375C0.460938 5.69141 0.668294 4.84831 1.08301 4.06445C1.49772 3.2806 2.07194 2.59245 2.80566 2C3.53939 1.40755 4.3916 0.944987 5.3623 0.612305C6.33757 0.275065 7.38346 0.106445 8.5 0.106445C9.61198 0.106445 10.6533 0.275065 11.624 0.612305C12.5993 0.944987 13.4538 1.40755 14.1875 2C14.9258 2.59245 15.5 3.2806 15.9102 4.06445C16.3249 4.84831 16.5322 5.69141 16.5322 6.59375C16.5322 7.33203 16.3955 8.0293 16.1221 8.68555C15.8486 9.3418 15.459 9.9388 14.9531 10.4766C14.4473 11.0143 13.8411 11.4792 13.1348 11.8711C12.4329 12.2585 11.6536 12.5547 10.7969 12.7598C9.9401 12.9694 9.02409 13.0674 8.04883 13.0537C7.55664 13.4092 7.03255 13.735 6.47656 14.0312C5.92057 14.332 5.39193 14.5736 4.89062 14.7559C4.38932 14.9382 3.97917 15.0293 3.66016 15.0293ZM4.54883 13.457C4.74935 13.375 5.00456 13.2428 5.31445 13.0605C5.62891 12.8783 5.95247 12.6755 6.28516 12.4521C6.6224 12.2288 6.92546 12.0169 7.19434 11.8164C7.33105 11.707 7.46094 11.6296 7.58398 11.584C7.70703 11.5339 7.84147 11.5088 7.9873 11.5088C8.09668 11.5133 8.19466 11.5156 8.28125 11.5156C8.36784 11.5156 8.44076 11.5156 8.5 11.5156C9.39779 11.5156 10.2386 11.388 11.0225 11.1328C11.8109 10.8776 12.5013 10.5244 13.0938 10.0732C13.6862 9.62207 14.1488 9.09798 14.4814 8.50098C14.8187 7.90397 14.9873 7.26823 14.9873 6.59375C14.9873 5.91016 14.8187 5.27214 14.4814 4.67969C14.1488 4.08268 13.6862 3.55859 13.0938 3.10742C12.5013 2.65625 11.8109 2.30306 11.0225 2.04785C10.2386 1.78809 9.39779 1.6582 8.5 1.6582C7.59766 1.6582 6.75456 1.78809 5.9707 2.04785C5.18685 2.30306 4.4987 2.65625 3.90625 3.10742C3.3138 3.55859 2.84896 4.08268 2.51172 4.67969C2.17904 5.27214 2.0127 5.91016 2.0127 6.59375C2.0127 7.17708 2.1403 7.73307 2.39551 8.26172C2.65527 8.79036 3.02669 9.27344 3.50977 9.71094C3.99284 10.1484 4.57389 10.529 5.25293 10.8525C5.47624 10.9574 5.61068 11.0918 5.65625 11.2559C5.70638 11.4199 5.67904 11.6022 5.57422 11.8027C5.4375 12.0443 5.25977 12.3109 5.04102 12.6025C4.82682 12.8988 4.6377 13.1471 4.47363 13.3477C4.44173 13.3932 4.43262 13.4274 4.44629 13.4502C4.46452 13.473 4.4987 13.4753 4.54883 13.457Z" fill="#060606"/>
</svg>
